HIERARCHY
ROOT Hips
{
	OFFSET 0.000000 83.214638 0.000000
	CHANNELS 6 Xposition Yposition Zposition Xrotation Yrotation Zrotation
	JOINT Pelvis
	{
		OFFSET 0.000000 0.000000 0.000000
		CHANNELS 3 Xrotation Yrotation Zrotation
		JOINT LeftUpLeg
		{
			OFFSET 8.479700 -4.795502 -0.379100
			CHANNELS 3 Xrotation Yrotation Zrotation
			JOINT LeftLeg
			{
				OFFSET 0.024144 -32.555107 0.112900
				CHANNELS 3 Xrotation Yrotation Zrotation
				JOINT LeftFoot
				{
					OFFSET -0.024144 -32.638630 -3.012600
					CHANNELS 3 Xrotation Yrotation Zrotation
					JOINT LeftToeBase
					{
						OFFSET 0.970200 -13.225400 11.864200
						CHANNELS 3 Xrotation Yrotation Zrotation
						End Site
						{
							OFFSET 0.000000 12.319262 0.000000
						}
					}
					JOINT LFootTongue
					{
						OFFSET 1.142400 -1.059800 6.665200
						CHANNELS 3 Xrotation Yrotation Zrotation
						End Site
						{
							OFFSET 0.000000 12.319262 0.000000
						}
					}
				}
				JOINT LeftPantLeg
				{
					OFFSET 0.918482 -16.533964 -2.284700
					CHANNELS 3 Xrotation Yrotation Zrotation
					End Site
					{
						OFFSET 0.350399 24.744368 0.000000
					}
				}
			}
		}
		JOINT RightUpLeg
		{
			OFFSET -8.479700 -4.795502 -0.379100
			CHANNELS 3 Xrotation Yrotation Zrotation
			JOINT RightLeg
			{
				OFFSET -0.023144 -32.555092 0.112900
				CHANNELS 3 Xrotation Yrotation Zrotation
				JOINT RightFoot
				{
					OFFSET 0.023144 -32.638641 -3.012700
					CHANNELS 3 Xrotation Yrotation Zrotation
					JOINT RightToeBase
					{
						OFFSET -0.970200 -13.225400 11.864200
						CHANNELS 3 Xrotation Yrotation Zrotation
						End Site
						{
							OFFSET 0.000000 12.319244 0.000000
						}
					}
					JOINT RFootTongue
					{
						OFFSET -1.142200 -1.059800 6.665200
						CHANNELS 3 Xrotation Yrotation Zrotation
						End Site
						{
							OFFSET 0.000000 12.319243 0.000000
						}
					}
				}
				JOINT RightPantLeg
				{
					OFFSET -0.919482 -16.533978 -2.284800
					CHANNELS 3 Xrotation Yrotation Zrotation
					End Site
					{
						OFFSET -0.350400 24.744419 0.000000
					}
				}
			}
		}
	}
	JOINT Spine
	{
		OFFSET 0.000000 7.722000 1.166200
		CHANNELS 3 Xrotation Yrotation Zrotation
		JOINT Spine1
		{
			OFFSET 0.000000 12.024101 0.248800
			CHANNELS 3 Xrotation Yrotation Zrotation
			JOINT Spine2
			{
				OFFSET 0.000000 11.502998 -0.491200
				CHANNELS 3 Xrotation Yrotation Zrotation
				JOINT Neck
				{
					OFFSET 0.000000 18.430702 -3.123100
					CHANNELS 3 Xrotation Yrotation Zrotation
					JOINT Head
					{
						OFFSET 0.000000 9.051102 1.034000
						CHANNELS 3 Xrotation Yrotation Zrotation
						JOINT HairB
						{
							OFFSET 0.208400 24.786102 24.822300
							CHANNELS 3 Xrotation Yrotation Zrotation
							End Site
							{
								OFFSET 0.000000 32.263779 0.000000
							}
						}
						JOINT HairA
						{
							OFFSET -7.081100 24.428299 23.196600
							CHANNELS 3 Xrotation Yrotation Zrotation
							End Site
							{
								OFFSET 0.000000 32.263779 0.000000
							}
						}
						JOINT Hat
						{
							OFFSET 16.728800 15.048294 -15.439601
							CHANNELS 3 Xrotation Yrotation Zrotation
							End Site
							{
								OFFSET 0.000000 32.263779 0.000000
							}
						}
					}
				}
				JOINT LeftShoulder
				{
					OFFSET 6.197800 13.665199 -4.064700
					CHANNELS 3 Xrotation Yrotation Zrotation
					JOINT LeftArm
					{
						OFFSET 7.778100 -0.187103 -1.709300
						CHANNELS 3 Xrotation Yrotation Zrotation
						JOINT LeftForeArm
						{
							OFFSET 22.049376 0.000000 0.000000
							CHANNELS 3 Xrotation Yrotation Zrotation
							JOINT LeftHand
							{
								OFFSET 23.009392 0.000000 0.000000
								CHANNELS 3 Xrotation Yrotation Zrotation
								JOINT LeftHandThumb1
								{
									OFFSET 3.507191 -2.063065 3.133727
									CHANNELS 3 Xrotation Yrotation Zrotation
									JOINT LeftHandThumb2
									{
										OFFSET 3.101337 -1.790558 1.790558
										CHANNELS 3 Xrotation Yrotation Zrotation
										JOINT LeftHandThumb3
										{
											OFFSET 3.058640 -1.765907 1.765906
											CHANNELS 3 Xrotation Yrotation Zrotation
											End Site
											{
												OFFSET -0.415260 3.926476 -0.049563
											}
										}
									}
								}
								JOINT LeftHandIndex1
								{
									OFFSET 11.334419 -0.901459 3.706815
									CHANNELS 3 Xrotation Yrotation Zrotation
									JOINT LeftHandIndex2
									{
										OFFSET 3.283112 0.000000 0.000000
										CHANNELS 3 Xrotation Yrotation Zrotation
										JOINT LeftHandIndex3
										{
											OFFSET 3.323853 0.000000 0.000000
											CHANNELS 3 Xrotation Yrotation Zrotation
											End Site
											{
												OFFSET -1.135597 3.097809 0.402452
											}
										}
									}
								}
								JOINT LeftHandMiddle1
								{
									OFFSET 11.335861 0.000000 0.000000
									CHANNELS 3 Xrotation Yrotation Zrotation
									JOINT LeftHandMiddle2
									{
										OFFSET 3.410492 0.000000 0.000000
										CHANNELS 3 Xrotation Yrotation Zrotation
										JOINT LeftHandMiddle3
										{
											OFFSET 3.312172 0.000000 0.000000
											CHANNELS 3 Xrotation Yrotation Zrotation
											End Site
											{
												OFFSET -1.150200 3.080154 0.400270
											}
										}
									}
								}
								JOINT LeftHandRing1
								{
									OFFSET 11.514786 -0.013176 -3.003090
									CHANNELS 3 Xrotation Yrotation Zrotation
									JOINT LeftHandRing2
									{
										OFFSET 3.053307 0.000000 0.000000
										CHANNELS 3 Xrotation Yrotation Zrotation
										JOINT LeftHandRing3
										{
											OFFSET 3.295807 0.000000 0.000000
											CHANNELS 3 Xrotation Yrotation Zrotation
											End Site
											{
												OFFSET -1.281006 3.013344 0.375733
											}
										}
									}
								}
								JOINT LeftHandPinky1
								{
									OFFSET 10.518692 -0.960396 -5.730441
									CHANNELS 3 Xrotation Yrotation Zrotation
									JOINT LeftHandPinky2
									{
										OFFSET 2.861649 0.000000 0.000000
										CHANNELS 3 Xrotation Yrotation Zrotation
										JOINT LeftHandPinky3
										{
											OFFSET 2.863380 0.000000 0.000000
											CHANNELS 3 Xrotation Yrotation Zrotation
											End Site
											{
												OFFSET -0.843597 2.711159 0.369971
											}
										}
									}
								}
							}
							JOINT LSleeve
							{
								OFFSET 6.676277 -0.344902 -1.011730
								CHANNELS 3 Xrotation Yrotation Zrotation
								End Site
								{
									OFFSET 0.000000 14.885353 0.000000
								}
							}
						}
					}
				}
				JOINT RightShoulder
				{
					OFFSET -6.197800 13.665199 -4.064700
					CHANNELS 3 Xrotation Yrotation Zrotation
					JOINT RightArm
					{
						OFFSET -7.778100 -0.187103 -1.709300
						CHANNELS 3 Xrotation Yrotation Zrotation
						JOINT RightForeArm
						{
							OFFSET -22.049376 0.000000 0.000000
							CHANNELS 3 Xrotation Yrotation Zrotation
							JOINT RightHand
							{
								OFFSET -23.009392 0.000000 0.000000
								CHANNELS 3 Xrotation Yrotation Zrotation
								JOINT RightHandThumb1
								{
									OFFSET -3.507191 -2.063065 3.133727
									CHANNELS 3 Xrotation Yrotation Zrotation
									JOINT RightHandThumb2
									{
										OFFSET -3.101337 -1.790558 1.790558
										CHANNELS 3 Xrotation Yrotation Zrotation
										JOINT RightHandThumb3
										{
											OFFSET -3.058640 -1.765907 1.765906
											CHANNELS 3 Xrotation Yrotation Zrotation
											End Site
											{
												OFFSET 0.415260 3.926476 -0.049563
											}
										}
									}
								}
								JOINT RightHandIndex1
								{
									OFFSET -11.334419 -0.901459 3.706815
									CHANNELS 3 Xrotation Yrotation Zrotation
									JOINT RightHandIndex2
									{
										OFFSET -3.283112 0.000000 0.000000
										CHANNELS 3 Xrotation Yrotation Zrotation
										JOINT RightHandIndex3
										{
											OFFSET -3.323853 0.000000 0.000000
											CHANNELS 3 Xrotation Yrotation Zrotation
											End Site
											{
												OFFSET 1.135597 3.097809 0.402452
											}
										}
									}
								}
								JOINT RightHandMiddle1
								{
									OFFSET -11.335861 0.000000 0.000000
									CHANNELS 3 Xrotation Yrotation Zrotation
									JOINT RightHandMiddle2
									{
										OFFSET -3.410492 0.000000 0.000000
										CHANNELS 3 Xrotation Yrotation Zrotation
										JOINT RightHandMiddle3
										{
											OFFSET -3.312172 0.000000 0.000000
											CHANNELS 3 Xrotation Yrotation Zrotation
											End Site
											{
												OFFSET 1.150200 3.080154 0.400270
											}
										}
									}
								}
								JOINT RightHandRing1
								{
									OFFSET -11.514786 -0.013176 -3.003090
									CHANNELS 3 Xrotation Yrotation Zrotation
									JOINT RightHandRing2
									{
										OFFSET -3.053307 0.000000 0.000000
										CHANNELS 3 Xrotation Yrotation Zrotation
										JOINT RightHandRing3
										{
											OFFSET -3.295807 0.000000 0.000000
											CHANNELS 3 Xrotation Yrotation Zrotation
											End Site
											{
												OFFSET 1.281006 3.013344 0.375733
											}
										}
									}
								}
								JOINT RightHandPinky1
								{
									OFFSET -10.518692 -0.960396 -5.730441
									CHANNELS 3 Xrotation Yrotation Zrotation
									JOINT RightHandPinky2
									{
										OFFSET -2.861649 0.000000 0.000000
										CHANNELS 3 Xrotation Yrotation Zrotation
										JOINT RightHandPinky3
										{
											OFFSET -2.863380 0.000000 0.000000
											CHANNELS 3 Xrotation Yrotation Zrotation
											End Site
											{
												OFFSET 0.843597 2.711159 0.369971
											}
										}
									}
								}
							}
							JOINT RSleeve
							{
								OFFSET -6.676277 -0.344902 -1.011730
								CHANNELS 3 Xrotation Yrotation Zrotation
								End Site
								{
									OFFSET 0.000000 14.885353 0.000000
								}
							}
						}
					}
				}
				JOINT Backpack
				{
					OFFSET 0.000000 -2.471497 36.677502
					CHANNELS 3 Xrotation Yrotation Zrotation
					End Site
					{
						OFFSET 0.000000 20.427315 0.000000
					}
				}
				JOINT Hood
				{
					OFFSET 0.000000 18.754097 -10.431000
					CHANNELS 3 Xrotation Yrotation Zrotation
					JOINT Hood1
					{
						OFFSET 0.000000 -5.011002 -7.685901
						CHANNELS 3 Xrotation Yrotation Zrotation
						End Site
						{
							OFFSET 0.000000 9.175140 0.000000
						}
					}
				}
				JOINT LHoodieString
				{
					OFFSET 5.250500 16.397697 3.089900
					CHANNELS 3 Xrotation Yrotation Zrotation
					JOINT LHoodieString1
					{
						OFFSET 0.257700 -6.364304 3.694600
						CHANNELS 3 Xrotation Yrotation Zrotation
						JOINT LHoodieString2
						{
							OFFSET 0.000000 -9.643799 2.679100
							CHANNELS 3 Xrotation Yrotation Zrotation
							End Site
							{
								OFFSET 0.000000 10.009018 0.000000
							}
						}
					}
				}
				JOINT RHoodieString
				{
					OFFSET -5.250500 16.397697 3.089900
					CHANNELS 3 Xrotation Yrotation Zrotation
					JOINT RHoodieString1
					{
						OFFSET -0.257700 -6.364304 3.694600
						CHANNELS 3 Xrotation Yrotation Zrotation
						JOINT RHoodieString2
						{
							OFFSET 0.000000 -9.643799 2.679100
							CHANNELS 3 Xrotation Yrotation Zrotation
							End Site
							{
								OFFSET 0.000000 10.009018 0.000000
							}
						}
					}
				}
			}
			JOINT LBackpack_Strap
			{
				OFFSET 15.223200 -7.719803 -6.610900
				CHANNELS 3 Xrotation Yrotation Zrotation
				End Site
				{
					OFFSET 0.000000 16.040596 0.000000
				}
			}
			JOINT RBackpack_Strap
			{
				OFFSET -15.223000 -7.719803 -6.610900
				CHANNELS 3 Xrotation Yrotation Zrotation
				End Site
				{
					OFFSET 0.000000 16.040596 0.000000
				}
			}
		}
	}
	JOINT BoyFacialAnim_Joint
	{
		OFFSET 1.000000 -82.208099 -1.550900
		CHANNELS 3 Xrotation Yrotation Zrotation
		End Site
		{
			OFFSET 0.000000 30.012791 0.000000
		}
	}
}
MOTION
Frames: 4
Frame Time: 0.033333
0.159920 61.907661 -0.993405 8.888756 -58.911918 0.917603 0.000000 0.000003 0.000000 -61.109470 -9.933670 36.440132 79.828683 7.375322 -3.125575 -10.809786 8.109733 -19.501558 -0.000000 0.000002 0.000000 -0.000000 0.000002 0.000000 -0.000000 -0.000000 -0.000002 -55.969469 -3.922433 -15.564138 81.710209 7.628370 -3.450591 -29.163709 -3.623082 12.454929 -0.000000 0.000000 0.000000 -0.000000 0.000000 0.000000 -0.000003 -0.000000 0.000001 7.959339 -6.027537 1.043195 7.694142 -5.319855 -2.370700 7.614391 -5.415561 -2.397821 8.760625 9.247324 -1.128836 -30.194641 51.451419 1.888318 -0.000000 -0.000001 0.000000 -0.000000 -0.000001 0.000000 -0.000000 -0.000001 0.000000 3.117519 -11.016019 -6.409959 3.794179 13.524435 -18.984400 0.000001 -63.467163 -0.000008 -0.800407 -3.192512 38.489776 10.468177 7.147564 9.921589 -8.969332 17.057591 -9.772688 -0.000000 -0.000001 0.000001 -2.660812 -2.943958 -29.720731 1.684010 4.516199 -40.882282 -0.000001 -0.000002 -0.000000 -0.401424 1.166917 -30.230718 1.121980 3.772281 -33.117053 0.000004 0.000002 -0.000003 -0.001941 2.019712 -32.727674 1.417741 4.189852 -37.375471 -0.000002 -0.000002 0.000001 5.679490 9.794490 -36.887898 1.802374 0.561630 -42.532169 -0.000006 0.000000 -0.000000 -0.000000 -0.000001 -0.000001 1.865424 3.896827 -6.974869 32.367133 -6.363134 52.595602 -0.000042 70.971348 0.000051 45.360277 27.321728 -22.215537 12.368847 -4.624736 21.260535 17.294814 -25.325395 -0.358873 0.000003 -0.000002 -0.000005 5.274469 -6.773202 70.945127 4.981917 -6.665523 73.522663 0.000001 -0.000002 0.000001 4.890838 -6.638089 72.821667 6.267738 -6.914990 84.365779 -0.000002 0.000001 -0.000002 4.122093 -6.402312 72.850695 6.263219 -6.914555 84.328357 -0.000001 0.000001 0.000000 2.534084 -5.717425 68.041306 6.267338 -6.914977 84.362358 0.000001 -0.000000 0.000000 0.000000 0.000002 -0.000004 0.000002 -0.000001 0.000002 0.000002 -0.000001 0.000002 0.000002 -0.000001 0.000002 0.000002 -0.000001 0.000002 0.000002 -0.000001 0.000001 0.000000 -0.000002 -0.000001 0.000002 -0.000001 0.000002 0.000002 -0.000001 0.000001 0.000000 -0.000002 -0.000001 -0.000001 -0.000000 -0.000002 -0.000001 -0.000000 -0.000002 0.000000 0.000003 0.000000 
0.123419 61.822464 -1.096800 8.673724 -57.800285 0.369370 -0.000000 0.000002 -0.000000 -61.620225 -10.647274 35.951913 79.851100 7.565351 -2.999381 -10.582082 7.383072 -19.411425 -0.000000 0.000000 -0.000000 -0.000000 0.000000 -0.000000 0.000001 0.000001 -0.000001 -55.746112 -4.594882 -15.914095 81.927839 7.164950 -3.414671 -29.491667 -3.708263 12.619917 -0.000000 -0.000002 0.000000 -0.000000 -0.000002 0.000000 0.000001 -0.000001 0.000000 8.027094 -6.391903 1.386015 7.793854 -5.674813 -1.989415 7.706506 -5.776258 -2.019000 8.794244 9.220823 -1.162689 -30.020645 51.620237 1.257946 0.000001 -0.000000 0.000000 0.000001 -0.000000 0.000000 0.000001 -0.000000 0.000000 3.158815 -11.162853 -5.935052 4.787809 13.883708 -19.403473 -0.000018 -63.609716 -0.000023 -2.034499 -3.239004 38.729143 10.468181 7.147562 9.921591 -8.969332 17.057583 -9.772690 0.000001 -0.000000 0.000000 -2.660810 -2.943961 -29.720731 1.684006 4.516202 -40.882278 -0.000000 0.000003 -0.000003 -0.401421 1.166914 -30.230714 1.121977 3.772290 -33.117060 0.000001 -0.000000 0.000002 -0.001939 2.019704 -32.727671 1.417744 4.189850 -37.375471 -0.000001 0.000000 -0.000000 5.679494 9.794493 -36.887898 1.802373 0.561629 -42.532169 0.000003 0.000001 -0.000000 0.000002 0.000001 0.000000 1.914522 4.078096 -7.190179 32.314977 -5.946627 51.946898 0.000081 71.059437 -0.000066 43.600789 27.155697 -21.624562 12.368843 -4.624734 21.260535 17.294819 -25.325395 -0.358872 -0.000002 0.000003 0.000001 5.274465 -6.773202 70.945120 4.981912 -6.665519 73.522663 0.000001 0.000004 0.000002 4.890838 -6.638090 72.821667 6.267736 -6.914995 84.365779 0.000001 0.000000 -0.000000 4.122098 -6.402312 72.850702 6.263219 -6.914551 84.328357 -0.000000 0.000002 0.000001 2.534083 -5.717423 68.041306 6.267333 -6.914976 84.362358 -0.000000 -0.000001 -0.000002 -0.000003 -0.000001 -0.000003 0.000000 -0.000002 -0.000000 0.000000 -0.000002 -0.000000 0.000000 -0.000002 -0.000000 0.000000 -0.000002 -0.000000 0.000000 -0.000002 -0.000001 -0.000002 0.000002 -0.000001 0.000000 -0.000002 -0.000000 0.000000 -0.000002 -0.000001 -0.000002 0.000002 -0.000001 -0.000002 -0.000001 -0.000001 -0.000002 -0.000001 -0.000001 -0.000000 0.000002 -0.000000 
0.013193 61.763443 -1.181051 8.038395 -56.477311 -0.681781 0.000000 0.000000 0.000000 -61.890550 -11.522229 35.399757 79.855006 7.969670 -2.803278 -10.341379 6.477557 -19.423858 -0.000000 -0.000000 0.000000 -0.000000 -0.000000 0.000000 -0.000000 -0.000001 -0.000002 -55.061515 -5.467550 -16.163310 82.079852 6.526982 -3.435603 -29.960099 -3.857256 12.897421 0.000000 0.000000 0.000000 0.000000 0.000000 0.000000 -0.000001 0.000003 -0.000000 8.101098 -6.688076 1.728272 7.916802 -5.965106 -1.607081 7.822316 -6.073609 -1.638032 8.844847 9.158108 -1.189110 -29.373765 51.648982 0.376810 0.000000 -0.000001 -0.000000 0.000000 -0.000001 -0.000000 0.000000 -0.000001 -0.000000 3.214354 -11.362762 -5.376013 5.510051 14.617648 -19.268237 0.000045 -64.366077 0.000047 -7.959799 -3.546023 38.993946 10.468179 7.147559 9.921587 -8.969334 17.057590 -9.772686 0.000002 -0.000001 0.000000 -2.660814 -2.943961 -29.720731 1.684001 4.516204 -40.882285 0.000001 -0.000003 -0.000001 -0.401421 1.166909 -30.230714 1.121978 3.772285 -33.117053 0.000000 0.000001 -0.000001 -0.001944 2.019710 -32.727671 1.417742 4.189852 -37.375471 -0.000002 -0.000001 -0.000002 5.679491 9.794490 -36.887902 1.802373 0.561627 -42.532169 0.000001 -0.000000 -0.000000 -0.000001 -0.000001 0.000002 2.113076 4.689191 -7.046347 31.431400 -5.838940 50.560192 -0.000037 71.755816 0.000050 41.143092 26.680138 -20.204960 12.368842 -4.624738 21.260528 17.294814 -25.325394 -0.358875 -0.000002 0.000001 0.000001 5.274465 -6.773204 70.945120 4.981914 -6.665520 73.522663 -0.000000 0.000001 0.000002 4.890836 -6.638090 72.821660 6.267738 -6.914994 84.365779 0.000000 -0.000002 -0.000000 4.122094 -6.402315 72.850695 6.263219 -6.914555 84.328350 0.000000 -0.000002 0.000004 2.534082 -5.717425 68.041306 6.267335 -6.914974 84.362358 -0.000002 -0.000000 -0.000001 0.000001 0.000001 -0.000003 0.000002 0.000000 -0.000000 0.000002 0.000000 -0.000000 0.000002 0.000000 -0.000000 0.000002 0.000000 -0.000000 0.000002 0.000000 -0.000000 -0.000002 0.000000 -0.000000 0.000002 0.000000 -0.000000 0.000002 0.000000 -0.000000 -0.000002 0.000000 -0.000000 0.000000 0.000001 -0.000000 0.000000 0.000001 -0.000000 0.000000 0.000000 0.000000 
-0.206942 61.841225 -1.265248 6.952747 -54.813019 -2.125167 -0.000000 0.000002 -0.000000 -61.811204 -12.237036 34.826909 79.509501 8.253370 -2.619959 -10.055002 5.435409 -19.282509 -0.000000 0.000000 -0.000000 -0.000000 0.000000 -0.000000 0.000000 -0.000002 0.000000 -53.589726 -6.273047 -16.037351 81.926186 5.434180 -3.624861 -30.592410 -4.132380 13.534405 -0.000000 0.000000 -0.000000 -0.000000 0.000000 -0.000000 0.000001 0.000002 -0.000002 8.196316 -6.783311 1.967278 8.047354 -6.067929 -1.299441 7.949206 -6.182816 -1.329591 8.903767 9.046127 -1.242201 -28.169679 51.394230 -0.698894 0.000000 0.000001 -0.000000 0.000000 0.000001 -0.000000 0.000000 0.000001 -0.000000 3.256679 -11.488897 -4.820176 5.089481 15.580655 -18.343371 -0.000047 -65.115335 -0.000067 -19.599315 -5.250415 39.847088 10.468179 7.147563 9.921593 -8.969330 17.057593 -9.772688 0.000000 -0.000000 -0.000001 -2.660810 -2.943959 -29.720735 1.684006 4.516200 -40.882278 -0.000001 0.000000 -0.000004 -0.401422 1.166913 -30.230714 1.121978 3.772287 -33.117053 0.000000 -0.000001 -0.000002 -0.001939 2.019713 -32.727668 1.417739 4.189853 -37.375471 -0.000000 -0.000000 -0.000002 5.679494 9.794489 -36.887898 1.802376 0.561634 -42.532162 0.000001 0.000000 -0.000000 0.000001 -0.000001 0.000004 2.448267 5.722808 -6.560614 29.299261 -6.119670 48.323831 0.000021 73.321466 -0.000051 38.161138 25.752354 -17.754208 12.368840 -4.624733 21.260533 17.294814 -25.325390 -0.358872 -0.000003 0.000002 0.000001 5.274465 -6.773203 70.945127 4.981913 -6.665518 73.522663 -0.000001 0.000000 0.000002 4.890835 -6.638090 72.821667 6.267735 -6.914990 84.365779 -0.000000 0.000000 -0.000002 4.122091 -6.402314 72.850702 6.263219 -6.914553 84.328357 -0.000000 0.000000 0.000002 2.534082 -5.717423 68.041306 6.267335 -6.914974 84.362358 0.000002 0.000000 0.000000 -0.000001 0.000002 -0.000003 -0.000000 0.000001 -0.000000 -0.000000 0.000001 -0.000000 -0.000000 0.000001 -0.000000 -0.000000 0.000001 -0.000000 -0.000000 0.000001 0.000000 -0.000001 0.000001 -0.000000 -0.000000 0.000001 -0.000000 -0.000000 0.000001 0.000000 -0.000001 0.000001 -0.000000 0.000001 -0.000001 -0.000001 0.000001 -0.000001 -0.000001 -0.000000 0.000002 -0.000000 
